<svg id="Calque_1" data-name="Calque 1" xmlns="http://www.w3.org/2000/svg" viewBox="0 0 1668.62 1194.11"><defs><style>.cls-1{fill:#ffffff;}</style></defs><path class="cls-1" d="M1548.85,271.71c0-.63.05-1.26.09-1.9a31.14,31.14,0,0,0-.41-8.91c-.32-1.4-.62-2.8-.92-4.19l-.08-.36a324,324,0,0,0-7.06-42.86c-1.57-6.38-2.68-10.92-4.11-14-4.34-20-8.94-35.23-14.87-49.3-22.65-53.71-53.91-92.11-95.58-117.41C1372.91.61,1312-7.62,1234.28,6.93c-41.47,7.76-77,27.86-112.7,49.53-40.23,24.41-83.65,49.08-133.26,59-44.83,9-91.76,9-143.48.07-2.36-.41-4.71-.8-7.08-1.2l-3-.51a7.7,7.7,0,0,0-8.63,5.31l-.9,2.94a7.67,7.67,0,0,0,4.1,9.22c2.87,1.34,5.77,2.64,8.66,3.94,6.31,2.83,12.26,5.5,18.08,8.58,32.69,17.29,70.81,27.59,120,32.42,66.64,6.54,130.77-8.71,184.71-24.48,40.91-12,74.92-18.21,107-19.66,46-2.08,82,13.23,109.82,46.81,24.58,29.62,41.61,65.57,55.22,116.55,0,0,.16,1,.45,3,3.17,22.07,21.79,160.3,9.29,281.27-10.45,68.89-29.53,137.93-57.66,208.93a7.68,7.68,0,0,0,2.79,9.16,7.68,7.68,0,0,0,9.54-.67c1.13-1,2.06-1.81,2.81-2.44a18.12,18.12,0,0,0,4.47-4.78c38.63-66,67.87-126.15,89.4-184,28.44-76.41,43.79-136.67,49.77-195.39.06-.63.12-1.27.17-1.9l.18-1.81c6-50,7.57-95.44,4.84-135.17"/><path class="cls-1" d="M545.25,794.12c-32.4,51.66-69,94.54-114,122.31a226.64,226.64,0,0,1-84.93,31.43c-26.25,4.1-54.89,4.09-86.37-.7,32.19,39.05,72.27,53,118.87,43.84A188.26,188.26,0,0,0,412,981.06a212.41,212.41,0,0,0,41.09-21.94C510.28,920.09,549.53,854.42,545.25,794.12Z"/><path class="cls-1" d="M566.18,902.39c-25.16,41.94-54.43,76-90,98.88a197.78,197.78,0,0,1-66.38,27.37c-21.61,4.6-45.08,6-70.69,3.66,22.63,35.33,55.36,44.65,102.29,31.72q5.36-1.47,10.94-3.32a162.92,162.92,0,0,0,44.87-23.37C540.41,1005.63,568.89,953.78,566.18,902.39Z"/><path class="cls-1" d="M592.39,1180.44a46.08,46.08,0,0,0-3.61-6.06q-4.28-5.78-8.49-11.61h0c16.84-17.08,26.35-41.29,23-64.07-9.24,19.38-20.43,35.77-34.46,48h0c-1.34,1.17-2.7,2.33-4.1,3.42a97.08,97.08,0,0,1-30.52,16.16,113.31,113.31,0,0,1-33.68,5c12.46,15.88,28.56,18.84,50.43,10.49q2.49-.94,5.09-2.09c2.09-.92,4.12-2,6.12-3.06q10,8,20.09,15.84a7.67,7.67,0,0,0,11.36-9.87C593.16,1181.92,592.77,1181.18,592.39,1180.44Z"/><path class="cls-1" d="M509.31,1131.34q19.77-9.6,33.3-22.48c22.1-21.07,31.26-48.59,26-82-13.85,20.37-29.24,37.39-46.54,50.59a152.87,152.87,0,0,1-44.53,23.77c-19.88,6.63-41.83,9.33-66.21,7.6,26.92,35.38,52.74,42,89.7,26.36Q505.28,1133.31,509.31,1131.34Z"/><path class="cls-1" d="M476.81,856.9"/><path class="cls-1" d="M1668.62,887.42c-2.36-64.24-24.59-85.43-77.38-77l33.49,33.33c-281.25,315.37-720.78,219.7-863-1.09l33.32-25.41c-57.93-4.73-79.2,18.7-73.09,78.15,8.74-13.63,17.13-26.69,22.64-35.28,44.54,59.65,83.56,119.27,130.15,172.23,47.85,54.4,111.59,87.91,180.78,110.46,69.68,22.71,141.19,23.77,212,12.92,175.46-26.9,310.85-169.82,362.75-306.47C1642.92,861.85,1655.79,874.66,1668.62,887.42Z"/><path class="cls-1" d="M1159.83,212l-2.57-1.71a7.69,7.69,0,0,0-8.08-.28l-2,1.13c-1.52.86-3,1.72-4.55,2.61-4.17,2.47-8.29,5-12.41,7.62-8.8,5.49-17.12,10.68-26,15-55.74,26.89-117.7,33.1-184.15,18.47a751.56,751.56,0,0,1-128.54-41.26c-39.58-16.6-76.83-37.87-118-61.95-17.45-10.22-34.56-21.95-51.11-33.29-14.61-10-29.72-20.37-45.17-29.78-47.16-28.71-96.06-46.55-145.35-53-31.28-4.11-61.06-2.26-88.51,5.5-53,15-95.69,49-126.87,101.17C182.62,199,165,264.37,161.27,347.89c-2.91,64.46,3.46,130.94,19.47,203.22,13.4,60.48,33.38,121.5,59.49,181.79-1.64.49-3.28,1-4.93,1.45q-15.84,4.51-32,7.76c-.46-2.89-1-5.78-1.47-8.67-.63-3.63-2.85-5.42-6.51-5-4.29.45-8.58.94-12.84,1.62-4.93.78-6.77,3.3-6.12,8.26.36,2.74.84,5.47,1.37,8.18-1.58.22-3.15.45-4.73.66-3,.39-6,.74-9.07,1.07-.27-2.73-.65-5.46-1.09-8.17-.82-5-3.13-6.77-8.16-6.17-3.91.47-7.83.92-11.72,1.51-4.36.66-6.3,3.32-5.79,7.71.28,2.38.54,4.76.87,7.14q-17.17.84-34.44.44A523.28,523.28,0,0,1,14.8,741c-4.92-1-9.86-1.84-14.8-2.75a3.71,3.71,0,0,0,2.1,1.87q14.25,5.61,28.51,11.18a438.12,438.12,0,0,0,72.66,21.11c8.71,1.78,17.46,3.33,26.25,4.56v.24l9.34,1.08c2.27.26,3.34,1,3.55,3.35.37,4.11.94,8.2,1.51,12.29.74,5.33,3.82,7.42,9.09,6.44,3.58-.67,7.19-1.18,10.79-1.7,4.84-.7,6.43-2.73,5.86-7.68-.32-2.8-.59-5.6-1.07-8.37a3.6,3.6,0,0,1,.26-2.64q6.56.06,13.11-.08a2,2,0,0,1,.38.73c.6,2.74.78,5.57,1.17,8.35.66,4.75,2.73,6.39,7.42,5.85,4.19-.48,8.39-1,12.57-1.55,4-.54,6-2.94,5.69-6.95a73.58,73.58,0,0,0-1.23-7.78l.63,0a332.63,332.63,0,0,0,38.88-5.43c3.37-.68,6.71-1.46,10-2.28,12,25.05,28.9,55.59,43.32,80.49q-7.65,1.54-15.41,2.73c-34.43,5.15-70.62,4.59-108.61-1.4,37.61,53.48,85.2,63.9,138.35,56.87,1.43-.19,2.85-.4,4.27-.62,32-4.9,63.13-17.13,91.63-34.85,67.16-41.76,119.6-114,133.58-192.47,1.48-8.28.83-16.95,1.45-32.48C502.66,724,453.85,777.56,399.49,811.64c-13.1-31.73-24.47-62.47-34.19-92.48,2.65-1.55,5.28-3.14,7.87-4.81a332.56,332.56,0,0,0,31.67-23.2l.48-.4a74.4,74.4,0,0,0,4.54,6.43c2.54,3.12,5.68,3.42,8.92,1,3.39-2.51,6.75-5.07,10.1-7.65,3.74-2.88,4.08-5.5,1.24-9.37-1.66-2.27-3.51-4.42-5-6.8a2.1,2.1,0,0,1-.24-.79q4.8-4.47,9.45-9.08a3.62,3.62,0,0,1,2,1.71c1.59,2.32,3.35,4.52,5.07,6.75,3,3.94,5.59,4.29,9.55,1.42,2.95-2.14,5.89-4.29,8.93-6.3,4.46-3,5.21-6.61,2-11-2.44-3.33-4.89-6.66-7.48-9.86-1.48-1.82-1.23-3.1.21-4.88l5.95-7.28-.17-.18c5.44-7,10.64-14.21,15.65-21.56A438.28,438.28,0,0,0,513.5,547.6q6.33-14,12.65-27.89a3.77,3.77,0,0,0,.2-2.81c-2.9,4.09-5.84,8.16-8.69,12.29A523.09,523.09,0,0,1,460.72,598q-12.11,12.32-25,23.69c-1.42-1.93-2.89-3.83-4.35-5.73-2.69-3.5-5.93-4.06-9.52-1.5-3.21,2.29-6.33,4.7-9.46,7.09-4,3.07-4.49,5.92-1.56,10.11,1.57,2.25,3.2,4.47,4.91,6.61-2.4,1.87-4.81,3.73-7.25,5.55-1.28,1-2.57,1.89-3.85,2.83-1.51-2.32-3.07-4.6-4.72-6.82-3-4-6.06-4.54-10.15-1.66-3.52,2.49-6.94,5.13-10.34,7.79-2.9,2.27-3.25,5.1-1.16,8.15,1.66,2.42,3.3,4.84,5,7.24q-13.86,8.92-28.35,16.74l-1.76.93a912,912,0,0,1-21.37-94.39c-12.46-73.41-15.06-130.45-8.4-184.93,4.09-33.45,10.73-72.61,29.05-109.43,22.18-44.59,65.26-67.34,115.22-60.83,33.56,4.36,67.12,16.05,105.6,36.78,97.57,52.55,191.28,83.64,286.46,95,56.1,6.72,105.18,4.39,150.06-7.13,59.91-15.38,105.7-48.86,136.1-99.52,4.44-7.4,8.13-15.19,11.69-22.73,1.61-3.4,3.22-6.81,4.9-10.17A7.69,7.69,0,0,0,1159.83,212Z"/></svg>