<?xml version="1.0" encoding="utf-8"?>
<!-- Generator: Adobe Illustrator 25.2.3, SVG Export Plug-In . SVG Version: 6.00 Build 0)  -->
<svg version="1.1" id="Calque_1" xmlns="http://www.w3.org/2000/svg" xmlns:xlink="http://www.w3.org/1999/xlink" x="0px" y="0px"
	 viewBox="0 0 1999.65 1793.88" style="enable-background:new 0 0 1999.65 1793.88;" xml:space="preserve">
<style type="text/css">
	.st0{fill:#1D1D1B;}
</style>
<path class="st0" d="M1640.19,662.11c0.02-0.63,0.05-1.26,0.09-1.9c0.15-2.67,0.32-5.69-0.41-8.91c-0.32-1.4-0.62-2.8-0.92-4.19
	l-0.08-0.36c-1.63-15.85-4.07-30.67-7.06-42.86c-1.57-6.38-2.68-10.92-4.11-13.99c-4.34-20-8.94-35.23-14.87-49.3
	c-22.65-53.71-53.91-92.11-95.58-117.41c-53-32.18-113.89-40.41-191.63-25.86c-41.47,7.76-76.97,27.86-112.7,49.53
	c-40.23,24.41-83.65,49.08-133.26,59.01c-44.83,8.98-91.76,9-143.48,0.07c-2.36-0.41-4.71-0.8-7.08-1.2l-3.03-0.51
	c-3.8-0.64-7.49,1.63-8.63,5.31l-0.9,2.94c-1.13,3.67,0.62,7.6,4.1,9.22c2.87,1.34,5.77,2.64,8.66,3.94
	c6.31,2.83,12.26,5.5,18.08,8.58c32.69,17.29,70.81,27.59,119.98,32.42c66.64,6.54,130.77-8.71,184.71-24.48
	c40.91-11.97,74.92-18.21,107.03-19.66c46.04-2.08,81.95,13.23,109.82,46.81c24.58,29.62,41.61,65.57,55.22,116.55
	c0,0,0.16,1.04,0.45,3.04c3.17,22.07,21.79,160.3,9.29,281.27c-10.45,68.89-29.53,137.93-57.66,208.93
	c-1.32,3.33-0.16,7.13,2.79,9.16c1.31,0.91,2.83,1.35,4.35,1.35c1.87,0,3.73-0.68,5.19-2.02c1.13-1.04,2.06-1.81,2.81-2.44
	c1.68-1.4,3.26-2.72,4.47-4.78c38.63-65.97,67.87-126.15,89.4-183.99c28.44-76.41,43.79-136.67,49.77-195.39
	c0.06-0.63,0.12-1.27,0.17-1.9l0.18-1.81C1641.3,747.31,1642.92,701.84,1640.19,662.11"/>
<path class="st0" d="M636.59,1184.52c-32.4,51.66-68.99,94.54-114.02,122.31c-25.37,15.65-53.43,26.5-84.93,31.43
	c-26.25,4.1-54.89,4.09-86.37-0.7c32.19,39.05,72.27,52.98,118.87,43.84c10.72-2.1,21.78-5.42,33.17-9.94
	c14.41-5.72,28.2-13.16,41.09-21.94C601.62,1310.49,640.87,1244.82,636.59,1184.52z"/>
<path class="st0" d="M657.52,1292.79c-25.16,41.94-54.43,76-90,98.88c-20,12.86-42,22.18-66.38,27.37
	c-21.61,4.6-45.08,5.97-70.69,3.66c22.63,35.33,55.36,44.65,102.29,31.72c3.57-0.98,7.21-2.08,10.94-3.32
	c16.08-5.34,31.21-13.35,44.87-23.37C631.75,1396.03,660.23,1344.18,657.52,1292.79z"/>
<g>
	<path class="st0" d="M683.73,1570.84c-0.99-1.88-2.1-4.01-3.61-6.06c-2.85-3.85-5.67-7.73-8.49-11.61l0,0
		c16.84-17.08,26.35-41.29,22.95-64.07c-9.24,19.38-20.43,35.77-34.46,48.05l0,0c-1.34,1.17-2.7,2.33-4.1,3.42
		c-6.12,4.82-12.78,8.88-20.01,12.13c-3.38,1.52-6.87,2.88-10.51,4.03c-10.13,3.2-21.31,4.93-33.68,5
		c12.46,15.88,28.56,18.84,50.43,10.49c1.66-0.63,3.36-1.33,5.09-2.09c2.09-0.92,4.12-1.95,6.12-3.06
		c6.64,5.36,13.33,10.65,20.09,15.84c1.38,1.07,3.03,1.6,4.68,1.6c1.8,0,3.6-0.63,5.04-1.88c2.76-2.4,3.45-6.41,1.64-9.59
		C684.5,1572.32,684.11,1571.58,683.73,1570.84z"/>
	<path class="st0" d="M600.65,1521.74c13.18-6.4,24.31-13.91,33.3-22.48c22.1-21.07,31.26-48.59,25.96-82.04
		c-13.85,20.37-29.24,37.39-46.54,50.59c-13.6,10.37-28.38,18.38-44.53,23.77c-19.88,6.63-41.83,9.33-66.21,7.6
		c26.92,35.38,52.74,42.04,89.7,26.36C595.19,1524.32,597.96,1523.05,600.65,1521.74z"/>
</g>
<path class="st0" d="M568.15,1247.3"/>
<path class="st0" d="M1759.96,1277.82c-2.36-64.24-24.59-85.43-77.38-77.03c10.83,10.78,22.07,21.96,33.49,33.33
	c-281.25,315.37-720.78,219.7-862.98-1.09c10.49-8,21.13-16.11,33.32-25.41c-57.93-4.73-79.2,18.7-73.09,78.15
	c8.74-13.63,17.13-26.69,22.64-35.28c44.54,59.65,83.56,119.27,130.15,172.23c47.85,54.4,111.59,87.91,180.78,110.46
	c69.68,22.71,141.19,23.77,211.97,12.92c175.46-26.9,310.85-169.82,362.75-306.47C1734.26,1252.25,1747.13,1265.06,1759.96,1277.82z
	"/>
<path class="st0" d="M1251.17,602.35l-2.57-1.71c-2.42-1.62-5.55-1.72-8.08-0.28l-1.99,1.13c-1.52,0.86-3.04,1.72-4.55,2.61
	c-4.17,2.47-8.29,5.04-12.41,7.62c-8.8,5.49-17.12,10.68-25.96,14.95c-55.74,26.89-117.7,33.1-184.15,18.47
	c-42.12-9.27-85.37-23.15-128.54-41.26c-39.58-16.6-76.83-37.87-117.95-61.95c-17.45-10.22-34.56-21.95-51.11-33.29
	c-14.61-10.02-29.72-20.37-45.17-29.78c-47.16-28.71-96.06-46.55-145.35-53.02c-31.28-4.11-61.06-2.26-88.51,5.5
	c-53.01,14.98-95.69,49.02-126.87,101.17c-34,56.87-51.59,122.26-55.35,205.78c-2.91,64.46,3.46,130.94,19.47,203.22
	c13.4,60.48,33.38,121.5,59.49,181.79c-1.64,0.49-3.28,0.98-4.93,1.45c-10.56,3.01-21.23,5.58-32,7.76
	c-0.46-2.89-0.97-5.78-1.47-8.67c-0.63-3.63-2.85-5.42-6.51-5.03c-4.29,0.45-8.58,0.94-12.84,1.62c-4.93,0.78-6.77,3.3-6.12,8.26
	c0.36,2.74,0.84,5.47,1.37,8.18c-1.58,0.22-3.15,0.45-4.73,0.66c-3.02,0.39-6.04,0.74-9.07,1.07c-0.27-2.73-0.65-5.46-1.09-8.17
	c-0.82-5.05-3.13-6.77-8.16-6.17c-3.91,0.47-7.83,0.92-11.72,1.51c-4.36,0.66-6.3,3.32-5.79,7.71c0.28,2.38,0.54,4.76,0.87,7.14
	c-11.45,0.56-22.93,0.7-34.44,0.44c-29.9-0.68-59.47-3.93-88.8-9.67c-4.92-0.96-9.86-1.84-14.8-2.75c0.55,1.06,1.29,1.56,2.1,1.87
	c9.5,3.74,19.01,7.45,28.51,11.18c23.58,9.25,47.86,16.05,72.66,21.11c8.71,1.78,17.46,3.33,26.25,4.56l0,0.24
	c3.11,0.36,6.23,0.72,9.34,1.08c2.27,0.26,3.34,1.01,3.55,3.35c0.37,4.11,0.94,8.2,1.51,12.29c0.74,5.33,3.82,7.42,9.09,6.44
	c3.58-0.67,7.19-1.18,10.79-1.7c4.84-0.7,6.43-2.73,5.86-7.68c-0.32-2.8-0.59-5.6-1.07-8.37c-0.2-1.16-0.15-2.04,0.26-2.64
	c4.37,0.04,8.74,0.02,13.11-0.08c0.19,0.25,0.33,0.5,0.38,0.73c0.6,2.74,0.78,5.57,1.17,8.35c0.66,4.75,2.73,6.39,7.42,5.85
	c4.19-0.48,8.39-0.99,12.57-1.55c3.99-0.54,6.04-2.94,5.69-6.95c-0.23-2.61-0.72-5.2-1.23-7.78c0.21-0.02,0.42-0.03,0.63-0.05
	c13.03-1.06,26.07-2.84,38.88-5.43c3.37-0.68,6.71-1.46,10.03-2.28c12.01,25.05,28.9,55.59,43.32,80.49
	c-5.1,1.03-10.23,1.95-15.41,2.73c-34.43,5.15-70.62,4.59-108.61-1.4c37.61,53.48,85.2,63.9,138.35,56.87
	c1.43-0.19,2.85-0.4,4.27-0.62c31.99-4.9,63.13-17.13,91.63-34.85c67.16-41.76,119.6-113.98,133.58-192.47
	c1.48-8.28,0.83-16.95,1.45-32.48c-43.42,74.9-92.23,128.51-146.59,162.59c-13.1-31.73-24.47-62.47-34.19-92.48
	c2.65-1.55,5.28-3.14,7.87-4.81c10.99-7.07,21.59-14.88,31.67-23.2c0.16-0.13,0.32-0.27,0.48-0.4c1.43,2.2,2.89,4.4,4.54,6.43
	c2.54,3.12,5.68,3.42,8.92,1.02c3.39-2.51,6.75-5.07,10.1-7.65c3.74-2.88,4.08-5.5,1.24-9.37c-1.66-2.27-3.51-4.42-4.99-6.8
	c-0.12-0.2-0.2-0.48-0.24-0.79c3.2-2.98,6.35-6.01,9.45-9.08c0.71,0.15,1.37,0.74,2.03,1.71c1.59,2.32,3.35,4.52,5.07,6.75
	c3.04,3.94,5.59,4.29,9.55,1.42c2.95-2.14,5.89-4.29,8.93-6.3c4.46-2.97,5.21-6.61,2.03-10.95c-2.44-3.33-4.89-6.66-7.48-9.86
	c-1.48-1.82-1.23-3.1,0.21-4.88c1.98-2.43,3.97-4.85,5.95-7.28l-0.17-0.18c5.44-7,10.64-14.21,15.65-21.56
	c14.25-20.91,26.93-42.71,37.39-65.78c4.22-9.3,8.45-18.59,12.65-27.89c0.36-0.79,0.54-1.66,0.2-2.81
	c-2.9,4.09-5.84,8.16-8.69,12.29c-17.03,24.56-35.98,47.5-56.94,68.82c-8.07,8.21-16.39,16.11-25,23.69
	c-1.42-1.93-2.89-3.83-4.35-5.73c-2.69-3.5-5.93-4.06-9.52-1.5c-3.21,2.29-6.33,4.7-9.46,7.09c-4.03,3.07-4.49,5.92-1.56,10.11
	c1.57,2.25,3.2,4.47,4.91,6.61c-2.4,1.87-4.81,3.73-7.25,5.55c-1.28,0.96-2.57,1.89-3.85,2.83c-1.51-2.32-3.07-4.6-4.72-6.82
	c-2.99-4.01-6.06-4.54-10.15-1.66c-3.52,2.49-6.94,5.13-10.34,7.79c-2.9,2.27-3.25,5.1-1.16,8.15c1.66,2.42,3.3,4.84,4.99,7.24
	c-9.24,5.95-18.69,11.54-28.35,16.74c-0.58,0.31-1.17,0.62-1.76,0.93c-9.03-32.13-16.13-63.49-21.37-94.39
	c-12.46-73.41-15.06-130.45-8.4-184.93c4.09-33.45,10.73-72.61,29.05-109.43c22.18-44.59,65.26-67.34,115.22-60.83
	c33.56,4.36,67.12,16.05,105.6,36.78c97.57,52.55,191.28,83.64,286.46,95.04c56.1,6.72,105.18,4.39,150.06-7.13
	c59.91-15.38,105.7-48.86,136.1-99.52c4.44-7.4,8.13-15.19,11.69-22.73c1.61-3.4,3.22-6.81,4.9-10.17
	C1255.49,608.7,1254.38,604.5,1251.17,602.35z"/>
</svg>
